<?xml version="1.0" encoding="UTF-8" standalone="no"?>
<!DOCTYPE svg PUBLIC "-//W3C//DTD SVG 1.1//EN"
 "http://www.w3.org/Graphics/SVG/1.1/DTD/svg11.dtd">
<!-- Generated by graphviz version 2.40.1 (20161225.0304)
 -->
<!-- Title: G Pages: 1 -->
<svg width="288pt" height="126pt"
 viewBox="0.00 0.00 288.00 125.79" xmlns="http://www.w3.org/2000/svg" xmlns:xlink="http://www.w3.org/1999/xlink">
<g id="graph0" class="graph" transform="scale(.3921 .3921) rotate(0) translate(4 316.8313)">
<title>G</title>
<polygon fill="#ffffff" stroke="transparent" points="-4,4 -4,-316.8313 730.537,-316.8313 730.537,4 -4,4"/>
<!-- 方形节点 -->
<g id="node1" class="node">
<title>方形节点</title>
<polygon fill="none" stroke="#000000" points="632.2623,-312.8313 549.2959,-312.8313 549.2959,-276.8313 632.2623,-276.8313 632.2623,-312.8313"/>
<text text-anchor="middle" x="590.7791" y="-290.6313" font-family="Times,serif" font-size="14.00" fill="#000000">方形节点</text>
</g>
<!-- 上面是加粗线 -->
<g id="node2" class="node">
<title>上面是加粗线</title>
<ellipse fill="none" stroke="#000000" cx="327.7791" cy="-221.8313" rx="71.2561" ry="18"/>
<text text-anchor="middle" x="327.7791" y="-217.6313" font-family="Times,serif" font-size="14.00" fill="#000000">上面是加粗线</text>
</g>
<!-- 方形节点&#45;&gt;上面是加粗线 -->
<g id="edge1" class="edge">
<title>方形节点&#45;&gt;上面是加粗线</title>
<path fill="none" stroke="#000000" stroke-width="2" d="M549.5085,-289.0175C513.0275,-283.2832 458.6401,-273.2722 412.7791,-258.8313 398.3105,-254.2753 382.9742,-248.0589 369.3703,-242.0222"/>
<polygon fill="#000000" stroke="#000000" stroke-width="2" points="370.814,-238.8339 360.2609,-237.8942 367.9247,-245.2098 370.814,-238.8339"/>
</g>
<!-- 上面是虚线 -->
<g id="node4" class="node">
<title>上面是虚线</title>
<ellipse fill="none" stroke="#000000" cx="443.7791" cy="-167.8313" rx="65.413" ry="18"/>
<text text-anchor="middle" x="443.7791" y="-163.6313" font-family="Times,serif" font-size="14.00" fill="#000000">上面是虚线</text>
</g>
<!-- 方形节点&#45;&gt;上面是虚线 -->
<g id="edge3" class="edge">
<title>方形节点&#45;&gt;上面是虚线</title>
<path fill="none" stroke="#000000" stroke-dasharray="1,5" d="M549.4437,-284.64C511.1123,-274.2682 458.1811,-257.2765 445.7791,-239.8313 436.8587,-227.2834 436.0558,-210.1518 437.6258,-195.7476"/>
<polygon fill="#000000" stroke="#000000" points="441.089,-196.2533 439.1062,-185.8457 434.166,-195.2182 441.089,-196.2533"/>
</g>
<!-- 重量更大导致垂直指下的节点 -->
<g id="node5" class="node">
<title>重量更大导致垂直指下的节点</title>
<ellipse fill="none" stroke="#000000" cx="590.7791" cy="-221.8313" rx="135.5162" ry="18"/>
<text text-anchor="middle" x="590.7791" y="-217.6313" font-family="Times,serif" font-size="14.00" fill="#000000">重量更大导致垂直指下的节点</text>
</g>
<!-- 方形节点&#45;&gt;重量更大导致垂直指下的节点 -->
<g id="edge4" class="edge">
<title>方形节点&#45;&gt;重量更大导致垂直指下的节点</title>
<path fill="none" stroke="#000000" d="M590.7791,-276.7863C590.7791,-268.7141 590.7791,-259.0077 590.7791,-250.013"/>
<polygon fill="#000000" stroke="#000000" points="594.2792,-249.9216 590.7791,-239.9216 587.2792,-249.9217 594.2792,-249.9216"/>
</g>
<!-- 上面是有标签的红线 -->
<g id="node7" class="node">
<title>上面是有标签的红线</title>
<ellipse fill="none" stroke="#000000" cx="95.7791" cy="-29.4156" rx="95.5587" ry="18"/>
<text text-anchor="middle" x="95.7791" y="-25.2156" font-family="Times,serif" font-size="14.00" fill="#000000">上面是有标签的红线</text>
</g>
<!-- 方形节点&#45;&gt;上面是有标签的红线 -->
<g id="edge8" class="edge">
<title>方形节点&#45;&gt;上面是有标签的红线</title>
<path fill="none" stroke="#ff0000" d="M549.2418,-292.1373C469.3247,-286.3189 297.6516,-270.5528 247.7791,-239.8313 175.7499,-195.4612 127.6237,-103.0171 107.0767,-56.8638"/>
<polygon fill="#ff0000" stroke="#ff0000" points="110.1978,-55.2643 103.0007,-47.4893 103.7784,-58.0555 110.1978,-55.2643"/>
<text text-anchor="middle" x="213.1946" y="-163.6313" font-family="Times,serif" font-size="14.00" fill="#000000">100 times</text>
</g>
<!-- 和下面的对比 -->
<g id="node3" class="node">
<title>和下面的对比</title>
<ellipse fill="none" stroke="#000000" cx="327.7791" cy="-113.8313" rx="70.0906" ry="18"/>
<text text-anchor="middle" x="327.7791" y="-109.6313" font-family="Times,serif" font-size="14.00" fill="#000000">和下面的对比</text>
</g>
<!-- 上面是加粗线&#45;&gt;和下面的对比 -->
<g id="edge2" class="edge">
<title>上面是加粗线&#45;&gt;和下面的对比</title>
<path fill="none" stroke="#000000" d="M327.7791,-203.5106C327.7791,-186.6522 327.7791,-161.3964 327.7791,-141.9783"/>
<polygon fill="#000000" stroke="#000000" points="331.2792,-141.8814 327.7791,-131.8814 324.2792,-141.8815 331.2792,-141.8814"/>
</g>
<!-- make_string -->
<g id="node6" class="node">
<title>make_string</title>
<ellipse fill="none" stroke="#000000" cx="493.7791" cy="-29.4156" rx="29.9692" ry="29.3315"/>
<text text-anchor="middle" x="493.7791" y="-33.6156" font-family="Times,serif" font-size="14.00" fill="#000000">多行</text>
<text text-anchor="middle" x="493.7791" y="-16.8156" font-family="Times,serif" font-size="14.00" fill="#000000">标签</text>
</g>
<!-- 和下面的对比&#45;&gt;make_string -->
<g id="edge5" class="edge">
<title>和下面的对比&#45;&gt;make_string</title>
<path fill="none" stroke="#000000" d="M369.1258,-99.1366C394.8466,-89.2577 428.1654,-75.0957 455.7791,-58.8313 457.9806,-57.5346 460.1992,-56.1272 462.3993,-54.6541"/>
<polygon fill="#000000" stroke="#000000" points="464.5943,-57.3881 470.718,-48.7422 460.5392,-51.6822 464.5943,-57.3881"/>
</g>
<!-- 和下面的对比&#45;&gt;上面是有标签的红线 -->
<g id="edge6" class="edge">
<title>和下面的对比&#45;&gt;上面是有标签的红线</title>
<path fill="none" stroke="#000000" d="M287.3678,-99.1272C249.1878,-85.235 191.6574,-64.302 149.6031,-49.0001"/>
<polygon fill="#000000" stroke="#000000" points="150.6678,-45.6631 140.0738,-45.5327 148.2743,-52.2411 150.6678,-45.6631"/>
</g>
<!-- 在节点默认属性改变后才创建的节点 -->
<g id="node8" class="node">
<title>在节点默认属性改变后才创建的节点</title>
<polygon fill="#c1b2ff" stroke="#c1b2ff" points="446.5212,-47.4156 209.037,-47.4156 209.037,-11.4156 446.5212,-11.4156 446.5212,-47.4156"/>
<text text-anchor="middle" x="327.7791" y="-25.2156" font-family="Times,serif" font-size="14.00" fill="#000000">在节点默认属性改变后才创建的节点</text>
</g>
<!-- 和下面的对比&#45;&gt;在节点默认属性改变后才创建的节点 -->
<g id="edge9" class="edge">
<title>和下面的对比&#45;&gt;在节点默认属性改变后才创建的节点</title>
<path fill="none" stroke="#ff0000" d="M327.7791,-95.5143C327.7791,-84.563 327.7791,-70.4121 327.7791,-58.0151"/>
<polygon fill="#ff0000" stroke="#ff0000" points="331.2792,-57.6968 327.7791,-47.6968 324.2792,-57.6969 331.2792,-57.6968"/>
</g>
<!-- 上面是虚线&#45;&gt;make_string -->
<g id="edge7" class="edge">
<title>上面是虚线&#45;&gt;make_string</title>
<path fill="none" stroke="#000000" d="M450.3157,-149.7359C457.8835,-128.7859 470.5513,-93.7176 480.264,-66.8297"/>
<polygon fill="#000000" stroke="#000000" points="483.5881,-67.9293 483.6938,-57.335 477.0044,-65.5511 483.5881,-67.9293"/>
</g>
</g>
</svg>
