<?xml version="1.0" encoding="UTF-8" standalone="no"?>
<!DOCTYPE svg PUBLIC "-//W3C//DTD SVG 1.1//EN"
 "http://www.w3.org/Graphics/SVG/1.1/DTD/svg11.dtd">
<!-- Generated by graphviz version 2.40.1 (20161225.0304)
 -->
<!-- Title: G Pages: 1 -->
<svg width="222pt" height="364pt"
 viewBox="0.00 0.00 222.00 364.00" xmlns="http://www.w3.org/2000/svg" xmlns:xlink="http://www.w3.org/1999/xlink">
<g id="graph0" class="graph" transform="scale(1 1) rotate(0) translate(4 360)">
<title>G</title>
<polygon fill="#ffffff" stroke="transparent" points="-4,4 -4,-360 218,-360 218,4 -4,4"/>
<g id="clust1" class="cluster">
<title>cluster0</title>
<polygon fill="none" stroke="#000000" points="64,-152 64,-348 206,-348 206,-152 64,-152"/>
</g>
<g id="clust2" class="cluster">
<title>cluster1</title>
<polygon fill="none" stroke="#000000" points="64,-8 64,-132 206,-132 206,-8 64,-8"/>
</g>
<!-- a -->
<g id="node1" class="node">
<title>a</title>
<ellipse fill="none" stroke="#000000" cx="135" cy="-322" rx="27" ry="18"/>
<text text-anchor="middle" x="135" y="-317.8" font-family="Times,serif" font-size="14.00" fill="#000000">a</text>
</g>
<!-- b -->
<g id="node2" class="node">
<title>b</title>
<ellipse fill="none" stroke="#000000" cx="99" cy="-250" rx="27" ry="18"/>
<text text-anchor="middle" x="99" y="-245.8" font-family="Times,serif" font-size="14.00" fill="#000000">b</text>
</g>
<!-- a&#45;&gt;b -->
<g id="edge1" class="edge">
<title>a&#45;&gt;b</title>
<path fill="none" stroke="#000000" d="M126.2854,-304.5708C122.0403,-296.0807 116.8464,-285.6929 112.1337,-276.2674"/>
<polygon fill="#000000" stroke="#000000" points="115.237,-274.6477 107.6343,-267.2687 108.976,-277.7782 115.237,-274.6477"/>
</g>
<!-- c -->
<g id="node3" class="node">
<title>c</title>
<ellipse fill="none" stroke="#000000" cx="171" cy="-250" rx="27" ry="18"/>
<text text-anchor="middle" x="171" y="-245.8" font-family="Times,serif" font-size="14.00" fill="#000000">c</text>
</g>
<!-- a&#45;&gt;c -->
<g id="edge2" class="edge">
<title>a&#45;&gt;c</title>
<path fill="none" stroke="#000000" d="M143.7146,-304.5708C147.9597,-296.0807 153.1536,-285.6929 157.8663,-276.2674"/>
<polygon fill="#000000" stroke="#000000" points="161.024,-277.7782 162.3657,-267.2687 154.763,-274.6477 161.024,-277.7782"/>
</g>
<!-- d -->
<g id="node4" class="node">
<title>d</title>
<ellipse fill="none" stroke="#000000" cx="99" cy="-178" rx="27" ry="18"/>
<text text-anchor="middle" x="99" y="-173.8" font-family="Times,serif" font-size="14.00" fill="#000000">d</text>
</g>
<!-- b&#45;&gt;d -->
<g id="edge3" class="edge">
<title>b&#45;&gt;d</title>
<path fill="none" stroke="#000000" d="M99,-231.8314C99,-224.131 99,-214.9743 99,-206.4166"/>
<polygon fill="#000000" stroke="#000000" points="102.5001,-206.4132 99,-196.4133 95.5001,-206.4133 102.5001,-206.4132"/>
</g>
<!-- f -->
<g id="node7" class="node">
<title>f</title>
<ellipse fill="none" stroke="#000000" cx="99" cy="-34" rx="27" ry="18"/>
<text text-anchor="middle" x="99" y="-29.8" font-family="Times,serif" font-size="14.00" fill="#000000">f</text>
</g>
<!-- b&#45;&gt;f -->
<g id="edge7" class="edge">
<title>b&#45;&gt;f</title>
<path fill="none" stroke="#000000" d="M113.1229,-234.2844C121.2535,-224.1468 130.6901,-210.2347 135,-196 141.9225,-173.1366 145.3998,-157.6593 145.432,-142.2164"/>
<polygon fill="#000000" stroke="#000000" points="148.9176,-141.8227 144.9572,-131.9959 141.9251,-142.1476 148.9176,-141.8227"/>
</g>
<!-- c&#45;&gt;d -->
<g id="edge4" class="edge">
<title>c&#45;&gt;d</title>
<path fill="none" stroke="#000000" d="M155.7307,-234.7307C145.803,-224.803 132.6847,-211.6847 121.5637,-200.5637"/>
<polygon fill="#000000" stroke="#000000" points="123.7933,-197.8436 114.2473,-193.2473 118.8436,-202.7933 123.7933,-197.8436"/>
</g>
<!-- e -->
<g id="node5" class="node">
<title>e</title>
<ellipse fill="none" stroke="#000000" cx="99" cy="-106" rx="27" ry="18"/>
<text text-anchor="middle" x="99" y="-101.8" font-family="Times,serif" font-size="14.00" fill="#000000">e</text>
</g>
<!-- c&#45;&gt;e -->
<g id="edge10" class="edge">
<title>c&#45;&gt;e</title>
<path fill="none" stroke="#000000" d="M135,-152C130.7681,-144.3996 125.3302,-136.7278 119.9697,-129.8859"/>
<polygon fill="#000000" stroke="#000000" points="122.3507,-127.2677 113.3176,-121.7311 116.9265,-131.6924 122.3507,-127.2677"/>
</g>
<!-- g -->
<g id="node6" class="node">
<title>g</title>
<ellipse fill="none" stroke="#000000" cx="171" cy="-34" rx="27" ry="18"/>
<text text-anchor="middle" x="171" y="-29.8" font-family="Times,serif" font-size="14.00" fill="#000000">g</text>
</g>
<!-- c&#45;&gt;g -->
<g id="edge9" class="edge">
<title>c&#45;&gt;g</title>
<path fill="none" stroke="#000000" d="M171,-152.004C171,-148.766 171,-145.516 171,-142.2656"/>
<polygon fill="#000000" stroke="#000000" points="174.5001,-141.9975 171,-131.9976 167.5001,-141.9976 174.5001,-141.9975"/>
</g>
<!-- d&#45;&gt;e -->
<g id="edge8" class="edge">
<title>d&#45;&gt;e</title>
<path fill="none" stroke="#000000" d="M99,-159.8314C99,-152.131 99,-142.9743 99,-134.4166"/>
<polygon fill="#000000" stroke="#000000" points="102.5001,-134.4132 99,-124.4133 95.5001,-134.4133 102.5001,-134.4132"/>
</g>
<!-- h -->
<g id="node8" class="node">
<title>h</title>
<ellipse fill="none" stroke="#000000" cx="27" cy="-106" rx="27" ry="18"/>
<text text-anchor="middle" x="27" y="-101.8" font-family="Times,serif" font-size="14.00" fill="#000000">h</text>
</g>
<!-- d&#45;&gt;h -->
<g id="edge11" class="edge">
<title>d&#45;&gt;h</title>
<path fill="none" stroke="#000000" d="M83.7307,-162.7307C73.803,-152.803 60.6847,-139.6847 49.5637,-128.5637"/>
<polygon fill="#000000" stroke="#000000" points="51.7933,-125.8436 42.2473,-121.2473 46.8436,-130.7933 51.7933,-125.8436"/>
</g>
<!-- e&#45;&gt;g -->
<g id="edge5" class="edge">
<title>e&#45;&gt;g</title>
<path fill="none" stroke="#000000" d="M114.2693,-90.7307C124.197,-80.803 137.3153,-67.6847 148.4363,-56.5637"/>
<polygon fill="#000000" stroke="#000000" points="151.1564,-58.7933 155.7527,-49.2473 146.2067,-53.8436 151.1564,-58.7933"/>
</g>
<!-- e&#45;&gt;f -->
<g id="edge6" class="edge">
<title>e&#45;&gt;f</title>
<path fill="none" stroke="#000000" d="M99,-87.8314C99,-80.131 99,-70.9743 99,-62.4166"/>
<polygon fill="#000000" stroke="#000000" points="102.5001,-62.4132 99,-52.4133 95.5001,-62.4133 102.5001,-62.4132"/>
</g>
</g>
</svg>
