<?xml version="1.0" encoding="UTF-8" standalone="no"?>
<!DOCTYPE svg PUBLIC "-//W3C//DTD SVG 1.1//EN"
 "http://www.w3.org/Graphics/SVG/1.1/DTD/svg11.dtd">
<!-- Generated by graphviz version 2.40.1 (20161225.0304)
 -->
<!-- Title: G Pages: 1 -->
<svg width="454pt" height="290pt"
 viewBox="0.00 0.00 453.89 290.27" xmlns="http://www.w3.org/2000/svg" xmlns:xlink="http://www.w3.org/1999/xlink">
<g id="graph0" class="graph" transform="scale(1 1) rotate(0) translate(4 286.267)">
<title>G</title>
<polygon fill="#ffffff" stroke="transparent" points="-4,4 -4,-286.267 449.8894,-286.267 449.8894,4 -4,4"/>
<!-- a -->
<g id="node1" class="node">
<title>a</title>
<polygon fill="#ffff00" stroke="transparent" points="8,-43.267 8,-65.267 41,-65.267 41,-43.267 8,-43.267"/>
<polygon fill="none" stroke="#000000" points="8,-43.267 8,-65.267 41,-65.267 41,-43.267 8,-43.267"/>
<text text-anchor="start" x="10.8955" y="-49.667" font-family="Times,serif" font-size="14.00" fill="#000000">class</text>
<polygon fill="#add8e6" stroke="transparent" points="41,-43.267 41,-65.267 94,-65.267 94,-43.267 41,-43.267"/>
<polygon fill="none" stroke="#000000" points="41,-43.267 41,-65.267 94,-65.267 94,-43.267 41,-43.267"/>
<text text-anchor="start" x="43.7889" y="-49.667" font-family="Times,serif" font-size="14.00" fill="#000000">qualifier</text>
</g>
<!-- b -->
<g id="node2" class="node">
<title>b</title>
<ellipse fill="#d3d3d3" stroke="#000000" cx="341.9447" cy="-86.267" rx="103.8894" ry="86.0347"/>
<polygon fill="#ffe4c4" stroke="transparent" points="276.4447,-29.267 276.4447,-143.267 407.4447,-143.267 407.4447,-29.267 276.4447,-29.267"/>
<polygon fill="none" stroke="#000000" points="279.9447,-118.267 279.9447,-140.267 376.9447,-140.267 376.9447,-118.267 279.9447,-118.267"/>
<text text-anchor="start" x="304.7322" y="-124.667" font-family="Times,serif" font-size="14.00" fill="#000000">elephant</text>
<polygon fill="#7fff00" stroke="transparent" points="378.9447,-78.267 378.9447,-140.267 404.9447,-140.267 404.9447,-78.267 378.9447,-78.267"/>
<polygon fill="none" stroke="#000000" points="378.9447,-78.267 378.9447,-140.267 404.9447,-140.267 404.9447,-78.267 378.9447,-78.267"/>
<text text-anchor="start" x="381.4461" y="-85.467" font-family="Times,serif" font-size="14.00" fill="#000000">two</text>
<polygon fill="none" stroke="#000000" points="279.9447,-32.267 279.9447,-116.267 323.9447,-116.267 323.9447,-32.267 279.9447,-32.267"/>
<polygon fill="#c0c0c0" stroke="transparent" points="282.9447,-35.267 282.9447,-113.267 320.9447,-113.267 320.9447,-35.267 282.9447,-35.267"/>
<polygon fill="none" stroke="#000000" points="285.9447,-87.267 285.9447,-110.267 317.9447,-110.267 317.9447,-87.267 285.9447,-87.267"/>
<text text-anchor="start" x="289.5071" y="-94.567" font-family="Times,serif" font-size="14.00" fill="#000000">corn</text>
<polygon fill="#ffff00" stroke="transparent" points="285.9447,-62.267 285.9447,-85.267 317.9447,-85.267 317.9447,-62.267 285.9447,-62.267"/>
<polygon fill="none" stroke="#000000" points="285.9447,-62.267 285.9447,-85.267 317.9447,-85.267 317.9447,-62.267 285.9447,-62.267"/>
<text text-anchor="start" x="298.8374" y="-69.567" font-family="Times,serif" font-size="14.00" fill="#000000">c</text>
<polygon fill="none" stroke="#000000" points="285.9447,-38.267 285.9447,-60.267 317.9447,-60.267 317.9447,-38.267 285.9447,-38.267"/>
<text text-anchor="start" x="299.6144" y="-44.667" font-family="Times,serif" font-size="14.00" fill="#000000">f</text>
<polygon fill="none" stroke="#000000" points="282.9447,-35.267 282.9447,-113.267 320.9447,-113.267 320.9447,-35.267 282.9447,-35.267"/>
<polygon fill="#ffffff" stroke="transparent" points="325.9447,-78.267 325.9447,-116.267 376.9447,-116.267 376.9447,-78.267 325.9447,-78.267"/>
<polygon fill="none" stroke="#000000" points="325.9447,-78.267 325.9447,-116.267 376.9447,-116.267 376.9447,-78.267 325.9447,-78.267"/>
<text text-anchor="start" x="328.8921" y="-93.067" font-family="Times,serif" font-size="14.00" fill="#000000">penguin</text>
<polygon fill="none" stroke="#000000" stroke-width="4" points="327.9447,-34.267 327.9447,-74.267 402.9447,-74.267 402.9447,-34.267 327.9447,-34.267"/>
<text text-anchor="start" x="391.9447" y="-50.067" font-family="Times,serif" font-size="14.00" fill="#000000">4</text>
<polygon fill="none" stroke="#000000" points="276.4447,-29.267 276.4447,-143.267 407.4447,-143.267 407.4447,-29.267 276.4447,-29.267"/>
</g>
<!-- a&#45;&gt;b -->
<g id="edge1" class="edge">
<title>a:here&#45;&gt;b:there</title>
<path fill="none" stroke="#000000" d="M106.1367,-53.4614C173.8511,-45.6326 341.578,15.7995 363.5556,-22.5207"/>
<polygon fill="#000000" stroke="#000000" points="105.9737,-53.4721 100.2518,-57.8608 94,-54.267 99.7219,-49.8784 105.9737,-53.4721"/>
<polygon fill="#000000" stroke="#000000" points="360.1645,-23.3879 365.9447,-32.267 366.9632,-21.7213 360.1645,-23.3879"/>
</g>
<!-- c -->
<g id="node3" class="node">
<title>c</title>
<text text-anchor="start" x="312.0015" y="-249.867" font-family="Times,serif" font-size="14.00" fill="#000000">long line 1</text>
<text text-anchor="start" x="312.0015" y="-233.067" font-family="Times,serif" font-size="14.00" fill="#000000">line 2</text>
<text text-anchor="start" x="340.3921" y="-216.267" font-family="Times,serif" font-size="14.00" fill="#000000">line 3</text>
</g>
<!-- c&#45;&gt;b -->
<g id="edge2" class="edge">
<title>c&#45;&gt;b</title>
<path fill="none" stroke="#000000" d="M341.9447,-208.0006C341.9447,-199.6302 341.9447,-191.2597 341.9447,-182.8893"/>
<polygon fill="#000000" stroke="#000000" points="345.4448,-182.6791 341.9447,-172.6791 338.4448,-182.6792 345.4448,-182.6791"/>
</g>
<!-- d -->
<g id="node4" class="node">
<title>d</title>
<polygon fill="none" stroke="#000000" points="51,-261.8686 19.0384,-224.9662 82.9616,-224.9662 51,-261.8686"/>
<text text-anchor="middle" x="51" y="-233.067" font-family="Times,serif" font-size="14.00" fill="#000000">d</text>
</g>
<!-- d&#45;&gt;c -->
<g id="edge3" class="edge">
<title>d&#45;&gt;c</title>
<path fill="none" stroke="#000000" d="M72.3939,-237.267C118.7616,-237.267 229.5023,-237.267 293.6868,-237.267"/>
<polygon fill="#000000" stroke="#000000" points="293.9543,-240.7671 303.9543,-237.267 293.9542,-233.7671 293.9543,-240.7671"/>
<polygon fill="#ff0000" stroke="transparent" points="123,-239.767 123,-278.767 133,-278.767 133,-239.767 123,-239.767"/>
<polygon fill="none" stroke="#000000" points="123,-239.767 123,-278.767 133,-278.767 133,-239.767 123,-239.767"/>
<text text-anchor="start" x="126.25" y="-255.067" font-family="Times,serif" font-size="14.00" fill="#000000"> </text>
<polygon fill="none" stroke="#000000" points="135,-239.767 135,-278.767 205,-278.767 205,-239.767 135,-239.767"/>
<text text-anchor="start" x="137.5389" y="-263.167" font-family="Times,serif" font-size="14.00" fill="#000000">Edge labels</text>
<text text-anchor="start" x="158.7251" y="-246.367" font-family="Times,serif" font-size="14.00" fill="#000000">also</text>
<polygon fill="#0000ff" stroke="transparent" points="207,-239.767 207,-278.767 217,-278.767 217,-239.767 207,-239.767"/>
<polygon fill="none" stroke="#000000" points="207,-239.767 207,-278.767 217,-278.767 217,-239.767 207,-239.767"/>
<text text-anchor="start" x="210.25" y="-255.067" font-family="Times,serif" font-size="14.00" fill="#000000"> </text>
<polygon fill="none" stroke="#000000" points="120,-237.267 120,-282.267 220,-282.267 220,-237.267 120,-237.267"/>
</g>
</g>
</svg>
