<?xml version="1.0" encoding="UTF-8" standalone="no"?>
<!DOCTYPE svg PUBLIC "-//W3C//DTD SVG 1.1//EN"
 "http://www.w3.org/Graphics/SVG/1.1/DTD/svg11.dtd">
<!-- Generated by graphviz version 2.40.1 (20161225.0304)
 -->
<!-- Title: G Pages: 1 -->
<svg width="576pt" height="149pt"
 viewBox="0.00 0.00 575.61 148.74" xmlns="http://www.w3.org/2000/svg" xmlns:xlink="http://www.w3.org/1999/xlink">
<g id="graph0" class="graph" transform="scale(1 1) rotate(0) translate(4 144.7439)">
<title>G</title>
<polygon fill="#ffffff" stroke="transparent" points="-4,4 -4,-144.7439 571.6073,-144.7439 571.6073,4 -4,4"/>
<!-- node0 -->
<g id="node1" class="node">
<title>node0</title>
<polygon fill="none" stroke="#000000" points="54,-132.8423 0,-132.8423 0,-96.8423 54,-96.8423 54,-132.8423"/>
<text text-anchor="middle" x="27" y="-110.6423" font-family="Times,serif" font-size="14.00" fill="#000000">node0</text>
</g>
<!-- node1 -->
<g id="node2" class="node">
<title>node1</title>
<polygon fill="none" stroke="#000000" points="54,-44.0423 0,-44.0423 0,-8.0423 54,-8.0423 54,-44.0423"/>
<text text-anchor="middle" x="27" y="-21.8423" font-family="Times,serif" font-size="14.00" fill="#000000">node1</text>
</g>
<!-- node0&#45;&gt;node1 -->
<g id="edge1" class="edge">
<title>node0:n&#45;&gt;node1:n</title>
<path fill="none" stroke="#000000" d="M27,-132.8423C27,-144.8423 45.5147,-141.3276 54,-132.8423 80.6619,-106.1803 36.0237,-88.5318 28.1546,-54.1919"/>
<polygon fill="#000000" stroke="#000000" points="31.608,-53.5826 27,-44.0423 24.6529,-54.3739 31.608,-53.5826"/>
<text text-anchor="middle" x="43.5" y="-66.2423" font-family="Times,serif" font-size="14.00" fill="#000000">n</text>
</g>
<!-- node2 -->
<g id="node3" class="node">
<title>node2</title>
<polygon fill="none" stroke="#000000" points="126,-132.8423 72,-132.8423 72,-96.8423 126,-96.8423 126,-132.8423"/>
<text text-anchor="middle" x="99" y="-110.6423" font-family="Times,serif" font-size="14.00" fill="#000000">node2</text>
</g>
<!-- node3 -->
<g id="node4" class="node">
<title>node3</title>
<polygon fill="none" stroke="#000000" points="126,-44.0423 72,-44.0423 72,-8.0423 126,-8.0423 126,-44.0423"/>
<text text-anchor="middle" x="99" y="-21.8423" font-family="Times,serif" font-size="14.00" fill="#000000">node3</text>
</g>
<!-- node2&#45;&gt;node3 -->
<g id="edge2" class="edge">
<title>node2:ne&#45;&gt;node3:ne</title>
<path fill="none" stroke="#000000" d="M126,-132.8423C131.8049,-138.6472 132.7799,-78.1481 128.9251,-53.6419"/>
<polygon fill="#000000" stroke="#000000" points="132.2629,-52.5878 126,-44.0423 125.5669,-54.6283 132.2629,-52.5878"/>
<text text-anchor="middle" x="137.6073" y="-66.2423" font-family="Times,serif" font-size="14.00" fill="#000000">ne</text>
</g>
<!-- node4 -->
<g id="node5" class="node">
<title>node4</title>
<polygon fill="none" stroke="#000000" points="198,-132.8423 144,-132.8423 144,-96.8423 198,-96.8423 198,-132.8423"/>
<text text-anchor="middle" x="171" y="-110.6423" font-family="Times,serif" font-size="14.00" fill="#000000">node4</text>
</g>
<!-- node5 -->
<g id="node6" class="node">
<title>node5</title>
<polygon fill="none" stroke="#000000" points="198,-44.0423 144,-44.0423 144,-8.0423 198,-8.0423 198,-44.0423"/>
<text text-anchor="middle" x="171" y="-21.8423" font-family="Times,serif" font-size="14.00" fill="#000000">node5</text>
</g>
<!-- node4&#45;&gt;node5 -->
<g id="edge3" class="edge">
<title>node4:e&#45;&gt;node5:e</title>
<path fill="none" stroke="#000000" d="M198,-114.8423C205.901,-114.8423 207.4751,-57.8992 202.7221,-35.211"/>
<polygon fill="#000000" stroke="#000000" points="205.6903,-33.33 198,-26.0423 199.4672,-36.5351 205.6903,-33.33"/>
<text text-anchor="middle" x="209.1073" y="-66.2423" font-family="Times,serif" font-size="14.00" fill="#000000">e</text>
</g>
<!-- node6 -->
<g id="node7" class="node">
<title>node6</title>
<polygon fill="none" stroke="#000000" points="270,-132.8423 216,-132.8423 216,-96.8423 270,-96.8423 270,-132.8423"/>
<text text-anchor="middle" x="243" y="-110.6423" font-family="Times,serif" font-size="14.00" fill="#000000">node6</text>
</g>
<!-- node7 -->
<g id="node8" class="node">
<title>node7</title>
<polygon fill="none" stroke="#000000" points="270,-44.0423 216,-44.0423 216,-8.0423 270,-8.0423 270,-44.0423"/>
<text text-anchor="middle" x="243" y="-21.8423" font-family="Times,serif" font-size="14.00" fill="#000000">node7</text>
</g>
<!-- node6&#45;&gt;node7 -->
<g id="edge4" class="edge">
<title>node6:se&#45;&gt;node7:se</title>
<path fill="none" stroke="#000000" d="M270,-96.8423C275.2871,-91.5552 276.5676,-39.2787 273.8414,-17.3036"/>
<polygon fill="#000000" stroke="#000000" points="277.0643,-15.9383 270,-8.0423 270.5984,-18.6202 277.0643,-15.9383"/>
<text text-anchor="middle" x="280.8296" y="-66.2423" font-family="Times,serif" font-size="14.00" fill="#000000">se</text>
</g>
<!-- node8 -->
<g id="node9" class="node">
<title>node8</title>
<polygon fill="none" stroke="#000000" points="342,-132.8423 288,-132.8423 288,-96.8423 342,-96.8423 342,-132.8423"/>
<text text-anchor="middle" x="315" y="-110.6423" font-family="Times,serif" font-size="14.00" fill="#000000">node8</text>
</g>
<!-- node9 -->
<g id="node10" class="node">
<title>node9</title>
<polygon fill="none" stroke="#000000" points="342,-44.0423 288,-44.0423 288,-8.0423 342,-8.0423 342,-44.0423"/>
<text text-anchor="middle" x="315" y="-21.8423" font-family="Times,serif" font-size="14.00" fill="#000000">node9</text>
</g>
<!-- node8&#45;&gt;node9 -->
<g id="edge5" class="edge">
<title>node8:s&#45;&gt;node9:s</title>
<path fill="none" stroke="#000000" d="M315,-96.8423C315,-55.5916 371.1686,-37.2109 342,-8.0423 336.8293,-2.8716 327.9343,.4534 321.774,-.4534"/>
<polygon fill="#000000" stroke="#000000" points="319.0481,1.7487 315,-8.0423 324.2703,-2.9127 319.0481,1.7487"/>
<text text-anchor="middle" x="330.7223" y="-66.2423" font-family="Times,serif" font-size="14.00" fill="#000000">s</text>
</g>
<!-- node10 -->
<g id="node11" class="node">
<title>node10</title>
<polygon fill="none" stroke="#000000" points="417.715,-132.8423 360.285,-132.8423 360.285,-96.8423 417.715,-96.8423 417.715,-132.8423"/>
<text text-anchor="middle" x="389" y="-110.6423" font-family="Times,serif" font-size="14.00" fill="#000000">node10</text>
</g>
<!-- node11 -->
<g id="node12" class="node">
<title>node11</title>
<polygon fill="none" stroke="#000000" points="417.715,-44.0423 360.285,-44.0423 360.285,-8.0423 417.715,-8.0423 417.715,-44.0423"/>
<text text-anchor="middle" x="389" y="-21.8423" font-family="Times,serif" font-size="14.00" fill="#000000">node11</text>
</g>
<!-- node10&#45;&gt;node11 -->
<g id="edge6" class="edge">
<title>node10:sw&#45;&gt;node11:sw</title>
<path fill="none" stroke="#000000" d="M360,-96.8423C354.7129,-91.5552 353.4324,-39.2787 356.1586,-17.3036"/>
<polygon fill="#000000" stroke="#000000" points="359.4016,-18.6202 360,-8.0423 352.9357,-15.9383 359.4016,-18.6202"/>
<text text-anchor="middle" x="363.7756" y="-66.2423" font-family="Times,serif" font-size="14.00" fill="#000000">sw</text>
</g>
<!-- node12 -->
<g id="node13" class="node">
<title>node12</title>
<polygon fill="none" stroke="#000000" points="492.715,-132.8423 435.285,-132.8423 435.285,-96.8423 492.715,-96.8423 492.715,-132.8423"/>
<text text-anchor="middle" x="464" y="-110.6423" font-family="Times,serif" font-size="14.00" fill="#000000">node12</text>
</g>
<!-- node13 -->
<g id="node14" class="node">
<title>node13</title>
<polygon fill="none" stroke="#000000" points="492.715,-44.0423 435.285,-44.0423 435.285,-8.0423 492.715,-8.0423 492.715,-44.0423"/>
<text text-anchor="middle" x="464" y="-21.8423" font-family="Times,serif" font-size="14.00" fill="#000000">node13</text>
</g>
<!-- node12&#45;&gt;node13 -->
<g id="edge7" class="edge">
<title>node12:w&#45;&gt;node13:w</title>
<path fill="none" stroke="#000000" d="M435,-114.8423C427.099,-114.8423 425.5249,-57.8992 430.2779,-35.211"/>
<polygon fill="#000000" stroke="#000000" points="433.5328,-36.5351 435,-26.0423 427.3097,-33.33 433.5328,-36.5351"/>
<text text-anchor="middle" x="433.0533" y="-66.2423" font-family="Times,serif" font-size="14.00" fill="#000000">w</text>
</g>
<!-- node14 -->
<g id="node15" class="node">
<title>node14</title>
<polygon fill="none" stroke="#000000" points="567.715,-132.8423 510.285,-132.8423 510.285,-96.8423 567.715,-96.8423 567.715,-132.8423"/>
<text text-anchor="middle" x="539" y="-110.6423" font-family="Times,serif" font-size="14.00" fill="#000000">node14</text>
</g>
<!-- node15 -->
<g id="node16" class="node">
<title>node15</title>
<polygon fill="none" stroke="#000000" points="567.715,-44.0423 510.285,-44.0423 510.285,-8.0423 567.715,-8.0423 567.715,-44.0423"/>
<text text-anchor="middle" x="539" y="-21.8423" font-family="Times,serif" font-size="14.00" fill="#000000">node15</text>
</g>
<!-- node14&#45;&gt;node15 -->
<g id="edge8" class="edge">
<title>node14:nw&#45;&gt;node15:nw</title>
<path fill="none" stroke="#000000" d="M510,-132.8423C504.1951,-138.6472 503.2201,-78.1481 507.0749,-53.6419"/>
<polygon fill="#000000" stroke="#000000" points="510.4331,-54.6283 510,-44.0423 503.7371,-52.5878 510.4331,-54.6283"/>
<text text-anchor="middle" x="514.5533" y="-66.2423" font-family="Times,serif" font-size="14.00" fill="#000000">nw</text>
</g>
</g>
</svg>
