<svg xmlns="http://www.w3.org/2000/svg" xmlns:xlink="http://www.w3.org/1999/xlink" version="1.1" x="0px" y="0px" viewBox="0 0 100 100" enable-background="new 0 0 100 100" xml:space="preserve"><g><path d="M75.27,61.623c-1.433-0.832-3.269-0.344-4.101,1.088c-3.099,5.335-10.508,11.565-21.187,11.565s-18.088-6.23-21.187-11.565   c-0.833-1.434-2.668-1.921-4.101-1.088c-1.433,0.832-1.919,2.668-1.087,4.102c1.412,2.43,9.318,14.552,26.375,14.552   s24.964-12.122,26.375-14.552C77.189,64.291,76.702,62.455,75.27,61.623z" fill="#fff"/><path d="M80.853,25.881c-6.78-1.329-13.954-2.106-22.855,0.129c-2.544,0.64-5.495,1.293-8.12,1.213   c-1.576-0.048-3.068-0.416-4.48-0.744c-8.75-2.039-16.719-2.913-26.19-1.152c-0.841,0.155-0.115,5.254-0.064,6.517   c0.405,10.175,3.799,14.794,12.695,14.803c10.072,0.011,15.033-9.859,15.686-13.492c0.35-1.95,1.354-2.148,2.476-2.179   c1.987-0.054,2.214,1.399,2.562,2.279c4.09,10.338,6.547,12.689,15.13,13.438c13.046,1.137,11.543-8.536,13.307-14.158   C81.335,31.459,81.722,26.052,80.853,25.881z" fill="#fff"/></g></svg>