<?xml version="1.0" standalone="no"?>
<!DOCTYPE svg PUBLIC "-//W3C//DTD SVG 20010904//EN"
 "http://www.w3.org/TR/2001/REC-SVG-20010904/DTD/svg10.dtd">
<svg version="1.0" xmlns="http://www.w3.org/2000/svg"
 width="1000.000000pt" height="1000.000000pt" viewBox="0 0 1000.000000 1000.000000"
 preserveAspectRatio="xMidYMid meet">
<metadata>
Created by potrace 1.11, written by Peter Selinger 2001-2013
</metadata>
<g transform="translate(0.000000,1000.000000) scale(0.100000,-0.100000)"
fill="#000000" stroke="none">
<path d="M3078 8045 c-2 -2 -34 -6 -73 -9 -38 -3 -86 -8 -105 -11 -19 -2 -60
-7 -90 -10 -30 -3 -66 -7 -80 -10 -22 -4 -58 -10 -135 -20 -59 -7 -73 -17 -82
-53 -13 -56 -8 -208 12 -402 2 -19 6 -80 9 -135 4 -55 8 -117 11 -137 3 -20 7
-56 9 -80 3 -24 12 -79 21 -123 9 -44 19 -93 22 -110 3 -16 11 -42 19 -57 8
-16 12 -28 10 -28 -7 0 48 -131 79 -186 75 -135 200 -252 330 -309 78 -34 103
-42 130 -46 6 -1 20 -5 33 -10 100 -38 425 -49 572 -18 52 10 111 25 130 33
19 8 37 14 40 14 19 2 122 50 185 87 150 88 340 261 425 390 8 12 32 47 52 77
33 50 119 212 139 263 35 85 34 81 55 170 31 129 76 185 155 190 22 1 42 4 44
7 3 3 28 1 56 -5 70 -14 104 -50 147 -157 5 -14 17 -41 26 -62 9 -20 16 -40
16 -45 0 -5 9 -26 19 -47 17 -33 39 -87 41 -101 2 -22 160 -317 204 -382 66
-100 66 -99 140 -174 172 -175 391 -254 781 -284 33 -2 62 -5 65 -6 25 -7 242
5 305 16 88 17 225 64 225 77 0 5 6 8 13 8 16 0 93 55 126 90 41 44 91 107 91
115 0 5 6 16 14 24 19 23 96 219 96 246 0 13 5 27 10 30 6 4 8 10 6 14 -3 4 1
32 9 62 7 30 16 70 19 89 2 19 7 46 10 60 3 13 8 40 11 60 3 20 8 47 11 60 3
14 7 36 10 50 3 14 12 52 21 85 31 121 33 143 38 335 3 122 1 175 -10 203 -16
47 -15 46 -51 51 -16 2 -40 6 -54 9 -14 4 -38 9 -55 11 -16 3 -39 7 -50 9 -11
3 -45 8 -75 12 -30 4 -64 9 -75 11 -42 8 -117 17 -270 31 -96 9 -575 10 -660
1 -115 -12 -148 -17 -305 -43 -40 -7 -229 -47 -280 -60 -11 -3 -28 -7 -38 -9
-9 -2 -35 -9 -57 -15 -22 -6 -58 -13 -80 -16 -22 -4 -48 -8 -57 -11 -24 -7
-65 -14 -108 -20 -19 -2 -57 -7 -85 -11 -92 -13 -351 -8 -360 8 -3 3 -16 5
-30 4 -14 -2 -25 1 -25 6 0 6 -4 8 -8 5 -5 -3 -24 -1 -43 4 -31 8 -48 12 -119
26 -14 2 -31 7 -39 10 -8 2 -30 7 -50 10 -20 3 -49 9 -66 14 -16 5 -68 16
-115 24 -200 36 -258 45 -300 51 -25 3 -56 8 -70 10 -41 7 -100 14 -180 20
-41 4 -88 9 -105 11 -34 6 -602 13 -607 9z"/>
<path d="M2994 5077 c-131 -63 -174 -221 -94 -350 17 -27 30 -50 30 -53 0 -3
4 -10 10 -17 5 -7 28 -37 50 -67 45 -63 51 -70 104 -136 50 -62 315 -324 327
-324 5 0 22 -13 37 -30 16 -16 32 -30 35 -30 4 0 27 -15 52 -34 90 -69 228
-149 428 -248 133 -65 425 -152 587 -174 25 -3 48 -8 51 -10 3 -2 42 -6 85
-10 43 -3 99 -7 124 -10 57 -4 310 -4 370 1 62 5 160 15 190 19 96 14 122 19
180 33 36 8 72 16 80 18 8 2 36 10 63 18 26 8 47 13 47 10 0 -3 7 0 15 7 8 7
15 10 15 6 0 -4 13 0 30 9 16 8 38 15 50 15 11 0 20 5 20 12 0 6 3 9 6 6 8 -9
116 37 249 104 104 54 119 62 125 69 3 3 20 14 39 24 66 33 251 169 339 249
132 118 251 246 337 361 16 22 33 42 37 43 4 2 8 10 8 17 0 7 4 15 9 17 5 2
31 43 59 92 49 85 51 91 48 155 -5 128 -85 215 -210 228 -103 11 -178 -30
-243 -132 -41 -65 -154 -216 -187 -251 -12 -13 -32 -35 -46 -50 -14 -15 -61
-59 -105 -97 -44 -39 -81 -74 -83 -79 -2 -4 -10 -8 -18 -8 -8 0 -14 -4 -14 -8
0 -4 -13 -16 -30 -25 -16 -10 -35 -24 -43 -31 -7 -7 -51 -35 -97 -62 -47 -27
-87 -51 -90 -54 -19 -20 -277 -126 -375 -154 -33 -9 -73 -21 -90 -26 -16 -5
-46 -12 -65 -15 -19 -3 -42 -8 -50 -10 -8 -2 -35 -7 -60 -10 -25 -3 -58 -8
-75 -11 -129 -22 -472 -15 -585 11 -14 3 -38 8 -55 10 -16 3 -45 7 -63 10 -19
3 -38 7 -43 11 -5 3 -22 8 -37 10 -89 17 -362 124 -427 168 -16 12 -31 20 -33
18 -5 -5 -197 119 -242 158 -19 16 -38 30 -42 30 -3 0 -19 12 -35 28 -16 15
-56 52 -89 83 -100 94 -274 304 -274 332 0 5 -6 15 -12 22 -7 8 -24 30 -38 49
-14 20 -31 36 -37 36 -7 0 -13 3 -13 8 0 15 -58 34 -120 38 -54 4 -73 1 -116
-19z"/>
</g>
</svg>
