<?xml version="1.0" encoding="UTF-8" standalone="no"?>
<!DOCTYPE svg PUBLIC "-//W3C//DTD SVG 1.1//EN"
 "http://www.w3.org/Graphics/SVG/1.1/DTD/svg11.dtd">
<!-- Generated by graphviz version 2.40.1 (20161225.0304)
 -->
<!-- Title: G Pages: 1 -->
<svg width="475pt" height="441pt"
 viewBox="0.00 0.00 474.73 440.60" xmlns="http://www.w3.org/2000/svg" xmlns:xlink="http://www.w3.org/1999/xlink">
<g id="graph0" class="graph" transform="scale(1 1) rotate(0) translate(4 436.6)">
<title>G</title>
<polygon fill="#ffffff" stroke="transparent" points="-4,4 -4,-436.6 470.7338,-436.6 470.7338,4 -4,4"/>
<!-- 确认现场环境安全 -->
<g id="node1" class="node">
<title>确认现场环境安全</title>
<polygon fill="none" stroke="#000000" points="363.0803,-432.6 231.2907,-432.6 231.2907,-396.6 363.0803,-396.6 363.0803,-432.6"/>
<text text-anchor="middle" x="297.1855" y="-410.4" font-family="Times,serif" font-size="14.00" fill="#000000">确认现场环境安全</text>
</g>
<!-- 做好自我防护措施 -->
<g id="node2" class="node">
<title>做好自我防护措施</title>
<polygon fill="none" stroke="#000000" points="369.1105,-359.6 225.2605,-359.6 225.2605,-323.6 369.1105,-323.6 369.1105,-359.6"/>
<text text-anchor="middle" x="297.1855" y="-337.4" font-family="Times,serif" font-size="14.00" fill="#000000">做好自我防护措施</text>
</g>
<!-- 确认现场环境安全&#45;&gt;做好自我防护措施 -->
<g id="edge1" class="edge">
<title>确认现场环境安全&#45;&gt;做好自我防护措施</title>
<path fill="none" stroke="#000000" d="M297.1855,-396.5551C297.1855,-388.4828 297.1855,-378.7764 297.1855,-369.7817"/>
<polygon fill="#000000" stroke="#000000" points="300.6856,-369.6903 297.1855,-359.6904 293.6856,-369.6904 300.6856,-369.6903"/>
</g>
<!-- 判断有无意识 -->
<g id="node3" class="node">
<title>判断有无意识</title>
<polygon fill="none" stroke="#000000" points="341.5185,-286.6 252.8525,-286.6 252.8525,-250.6 341.5185,-250.6 341.5185,-286.6"/>
<text text-anchor="middle" x="297.1855" y="-264.4" font-family="Times,serif" font-size="14.00" fill="#000000">判断有无意识</text>
</g>
<!-- 做好自我防护措施&#45;&gt;判断有无意识 -->
<g id="edge2" class="edge">
<title>做好自我防护措施&#45;&gt;判断有无意识</title>
<path fill="none" stroke="#000000" d="M297.1855,-323.5551C297.1855,-315.4828 297.1855,-305.7764 297.1855,-296.7817"/>
<polygon fill="#000000" stroke="#000000" points="300.6856,-296.6903 297.1855,-286.6904 293.6856,-296.6904 300.6856,-296.6903"/>
</g>
<!-- 一些措施 (见下&quot;如伤病员无反应&quot;) -->
<g id="node4" class="node">
<title>一些措施 (见下&quot;如伤病员无反应&quot;)</title>
<polygon fill="none" stroke="#000000" points="229.7821,-197.8 10.5889,-197.8 10.5889,-161.8 229.7821,-161.8 229.7821,-197.8"/>
<text text-anchor="middle" x="120.1855" y="-175.6" font-family="Times,serif" font-size="14.00" fill="#000000">一些措施 (见下&quot;如伤病员无反应&quot;)</text>
</g>
<!-- 判断有无意识&#45;&gt;一些措施 (见下&quot;如伤病员无反应&quot;) -->
<g id="edge3" class="edge">
<title>判断有无意识&#45;&gt;一些措施 (见下&quot;如伤病员无反应&quot;)</title>
<path fill="none" stroke="#000000" d="M260.9398,-250.4157C233.2871,-236.5425 195.0301,-217.3492 165.3798,-202.4738"/>
<polygon fill="#000000" stroke="#000000" points="166.5876,-199.164 156.0799,-197.808 163.4486,-205.4207 166.5876,-199.164"/>
<text text-anchor="middle" x="242.2928" y="-220" font-family="Times,serif" font-size="14.00" fill="#000000">无反应</text>
</g>
<!-- 一些措施 (见下&quot;如伤病员有反应&quot;) -->
<g id="node5" class="node">
<title>一些措施 (见下&quot;如伤病员有反应&quot;)</title>
<polygon fill="none" stroke="#000000" points="466.7821,-197.8 247.5889,-197.8 247.5889,-161.8 466.7821,-161.8 466.7821,-197.8"/>
<text text-anchor="middle" x="357.1855" y="-175.6" font-family="Times,serif" font-size="14.00" fill="#000000">一些措施 (见下&quot;如伤病员有反应&quot;)</text>
</g>
<!-- 判断有无意识&#45;&gt;一些措施 (见下&quot;如伤病员有反应&quot;) -->
<g id="edge4" class="edge">
<title>判断有无意识&#45;&gt;一些措施 (见下&quot;如伤病员有反应&quot;)</title>
<path fill="none" stroke="#000000" d="M309.6175,-250.2006C318.202,-237.4956 329.7496,-220.4051 339.3174,-206.2448"/>
<polygon fill="#000000" stroke="#000000" points="342.2761,-208.1174 344.9747,-197.872 336.476,-204.1984 342.2761,-208.1174"/>
<text text-anchor="middle" x="349.2928" y="-220" font-family="Times,serif" font-size="14.00" fill="#000000">有反应</text>
</g>
<!-- 判断有无呼吸 -->
<g id="node6" class="node">
<title>判断有无呼吸</title>
<polygon fill="none" stroke="#000000" points="165.3439,-124.8 75.0271,-124.8 75.0271,-88.8 165.3439,-88.8 165.3439,-124.8"/>
<text text-anchor="middle" x="120.1855" y="-102.6" font-family="Times,serif" font-size="14.00" fill="#000000">判断有无呼吸</text>
</g>
<!-- 一些措施 (见下&quot;如伤病员无反应&quot;)&#45;&gt;判断有无呼吸 -->
<g id="edge5" class="edge">
<title>一些措施 (见下&quot;如伤病员无反应&quot;)&#45;&gt;判断有无呼吸</title>
<path fill="none" stroke="#000000" d="M120.1855,-161.7551C120.1855,-153.6828 120.1855,-143.9764 120.1855,-134.9817"/>
<polygon fill="#000000" stroke="#000000" points="123.6856,-134.8903 120.1855,-124.8904 116.6856,-134.8904 123.6856,-134.8903"/>
</g>
<!-- 心肺复苏 -->
<g id="node7" class="node">
<title>心肺复苏</title>
<polygon fill="none" stroke="#000000" points="72.5575,-36 -.1865,-36 -.1865,0 72.5575,0 72.5575,-36"/>
<text text-anchor="middle" x="36.1855" y="-13.8" font-family="Times,serif" font-size="14.00" fill="#000000">心肺复苏</text>
</g>
<!-- 判断有无呼吸&#45;&gt;心肺复苏 -->
<g id="edge6" class="edge">
<title>判断有无呼吸&#45;&gt;心肺复苏</title>
<path fill="none" stroke="#000000" d="M102.7806,-88.4006C90.5357,-75.4559 73.9842,-57.9586 60.4456,-43.6464"/>
<polygon fill="#000000" stroke="#000000" points="62.6953,-40.9315 53.2807,-36.072 57.61,-45.7419 62.6953,-40.9315"/>
<text text-anchor="middle" x="107.7658" y="-58.2" font-family="Times,serif" font-size="14.00" fill="#000000">无呼吸</text>
</g>
<!-- 一些措施 (见下&quot;如伤病员有呼吸&quot;) -->
<g id="node8" class="node">
<title>一些措施 (见下&quot;如伤病员有呼吸&quot;)</title>
<polygon fill="none" stroke="#000000" points="318.2281,-36 90.1429,-36 90.1429,0 318.2281,0 318.2281,-36"/>
<text text-anchor="middle" x="204.1855" y="-13.8" font-family="Times,serif" font-size="14.00" fill="#000000">一些措施 (见下&quot;如伤病员有呼吸&quot;)</text>
</g>
<!-- 判断有无呼吸&#45;&gt;一些措施 (见下&quot;如伤病员有呼吸&quot;) -->
<g id="edge7" class="edge">
<title>判断有无呼吸&#45;&gt;一些措施 (见下&quot;如伤病员有呼吸&quot;)</title>
<path fill="none" stroke="#000000" d="M137.5904,-88.4006C149.8353,-75.4559 166.3868,-57.9586 179.9254,-43.6464"/>
<polygon fill="#000000" stroke="#000000" points="182.761,-45.7419 187.0903,-36.072 177.6757,-40.9315 182.761,-45.7419"/>
</g>
</g>
</svg>
